<svg xmlns="http://www.w3.org/2000/svg" width="14" height="14" viewBox="0 0 14 14"><path fill="#FFF" fill-rule="evenodd" d="M13.669 7.967a.49.49 0 0 0-.411.09 5.246 5.246 0 0 1-1.593.934 4.972 4.972 0 0 1-1.807.323A5.25 5.25 0 0 1 6.137 7.77a5.29 5.29 0 0 1-1.539-3.734c0-.611.107-1.203.286-1.742A4.826 4.826 0 0 1 5.744.75a.46.46 0 0 0-.072-.647.491.491 0 0 0-.412-.09 7.22 7.22 0 0 0-3.793 2.55A7.128 7.128 0 0 0 0 6.89c0 1.957.787 3.735 2.075 5.027A7.046 7.046 0 0 0 7.085 14a7.1 7.1 0 0 0 4.383-1.526 7.083 7.083 0 0 0 2.505-3.932c.09-.27-.053-.52-.304-.575zm-2.89 3.722A5.966 5.966 0 0 1 7.04 13a5.997 5.997 0 0 1-4.266-1.79A6.109 6.109 0 0 1 1 6.904c0-1.4.457-2.675 1.247-3.703A6.048 6.048 0 0 1 4.266 1.5a5.945 5.945 0 0 0-.58 2.622A6.15 6.15 0 0 0 5.46 8.446a6.039 6.039 0 0 0 4.285 1.79c.737 0 1.44-.124 2.089-.372.228-.09.456-.178.667-.284-.421.815-1 1.542-1.72 2.109z"/></svg>